# xmcd
#
# Track frame offsets:
#  150
#  12988
#  25079
#  41487
#  53879
#  65889
#  79478
#  91406
#  103526
#  117236
#  130833
#  142651
#
# Disc length: 2049 seconds
#
# Revision: 0
# Processed by: cddbd v1.5.1PL2 Copyright (c) Steve Scherf et al.
# Submitted via: Collectorz.com_Music_Collector 6.9
#
DISCID=9d07ff0c
DTITLE=Gallery - Nice To Be With You
DYEAR=2006
DGENRE=
TTITLE0=there's an island
TTITLE1=louisianna line
TTITLE2=someone
TTITLE3=ginger haired man
TTITLE4=Nice To Be With You
TTITLE5=gee whiz
TTITLE6=I Believe In Music
TTITLE7=lover's hideaway
TTITLE8=you're always on my ind
TTITLE9=he will break your heart
TTITLE10=sunday and me
TTITLE11=big city miss ruth ann
EXTD=
EXTT0=
EXTT1=
EXTT2=
EXTT3=
EXTT4=
EXTT5=
EXTT6=
EXTT7=
EXTT8=
EXTT9=
EXTT10=
EXTT11=
PLAYORDER=
